<svg width="36" height="36" viewBox="0 0 36 36" fill="none" xmlns="http://www.w3.org/2000/svg">
<path d="M31.1275 23.9274C28.4608 25.1336 25.4899 25.4986 22.6105 24.9737C19.7312 24.4488 17.0802 23.059 15.0106 20.9895C12.941 18.9199 11.5513 16.2689 11.0264 13.3895C10.5015 10.5102 10.8665 7.5393 12.0727 4.87262C9.94968 5.83204 8.09114 7.29217 6.65648 9.12775C5.22182 10.9633 4.25389 13.1195 3.83571 15.4114C3.41754 17.7033 3.56161 20.0624 4.25556 22.2863C4.94952 24.5103 6.17264 26.5327 7.82 28.1801C9.46736 29.8274 11.4898 31.0506 13.7137 31.7445C15.9377 32.4385 18.2968 32.5825 20.5887 32.1644C22.8806 31.7462 25.0368 30.7782 26.8723 29.3436C28.7079 27.9089 30.1681 26.0504 31.1275 23.9274Z" fill="#023047"/>
</svg>
