<svg width="36" height="36" viewBox="0 0 36 36" fill="none" xmlns="http://www.w3.org/2000/svg">
<path fill-rule="evenodd" clip-rule="evenodd" d="M18.0001 3.59998C18.4775 3.59998 18.9353 3.78962 19.2729 4.12719C19.6104 4.46475 19.8001 4.92259 19.8001 5.39998V7.19998C19.8001 7.67737 19.6104 8.1352 19.2729 8.47277C18.9353 8.81034 18.4775 8.99998 18.0001 8.99998C17.5227 8.99998 17.0648 8.81034 16.7273 8.47277C16.3897 8.1352 16.2001 7.67737 16.2001 7.19998V5.39998C16.2001 4.92259 16.3897 4.46475 16.7273 4.12719C17.0648 3.78962 17.5227 3.59998 18.0001 3.59998ZM25.2001 18C25.2001 19.9096 24.4415 21.7409 23.0912 23.0912C21.741 24.4414 19.9096 25.2 18.0001 25.2C16.0905 25.2 14.2592 24.4414 12.9089 23.0912C11.5586 21.7409 10.8001 19.9096 10.8001 18C10.8001 16.0904 11.5586 14.2591 12.9089 12.9088C14.2592 11.5586 16.0905 10.8 18.0001 10.8C19.9096 10.8 21.741 11.5586 23.0912 12.9088C24.4415 14.2591 25.2001 16.0904 25.2001 18ZM24.3649 26.91L25.6375 28.1826C25.977 28.5105 26.4316 28.6919 26.9036 28.6878C27.3755 28.6837 27.827 28.4944 28.1607 28.1607C28.4945 27.8269 28.6838 27.3755 28.6879 26.9035C28.692 26.4316 28.5106 25.9769 28.1827 25.6374L26.9101 24.3648C26.5706 24.0369 26.1159 23.8555 25.644 23.8596C25.172 23.8637 24.7205 24.053 24.3868 24.3867C24.0531 24.7205 23.8638 25.1719 23.8597 25.6439C23.8556 26.1158 24.037 26.5705 24.3649 26.91ZM28.1809 7.81738C28.5183 8.15493 28.7079 8.61268 28.7079 9.08998C28.7079 9.56727 28.5183 10.025 28.1809 10.3626L26.9101 11.6352C26.744 11.8071 26.5454 11.9442 26.3258 12.0386C26.1062 12.1329 25.87 12.1826 25.631 12.1846C25.392 12.1867 25.155 12.1412 24.9338 12.0507C24.7125 11.9602 24.5116 11.8265 24.3426 11.6575C24.1736 11.4885 24.0399 11.2875 23.9494 11.0663C23.8589 10.8451 23.8133 10.6081 23.8154 10.3691C23.8175 10.1301 23.8672 9.89386 23.9615 9.67425C24.0558 9.45464 24.193 9.25602 24.3649 9.08998L25.6375 7.81738C25.975 7.47993 26.4328 7.29036 26.9101 7.29036C27.3874 7.29036 27.8451 7.47993 28.1827 7.81738H28.1809ZM30.6001 19.8C31.0775 19.8 31.5353 19.6104 31.8729 19.2728C32.2104 18.9352 32.4001 18.4774 32.4001 18C32.4001 17.5226 32.2104 17.0648 31.8729 16.7272C31.5353 16.3896 31.0775 16.2 30.6001 16.2H28.8001C28.3227 16.2 27.8648 16.3896 27.5273 16.7272C27.1897 17.0648 27.0001 17.5226 27.0001 18C27.0001 18.4774 27.1897 18.9352 27.5273 19.2728C27.8648 19.6104 28.3227 19.8 28.8001 19.8H30.6001ZM18.0001 27C18.4775 27 18.9353 27.1896 19.2729 27.5272C19.6104 27.8648 19.8001 28.3226 19.8001 28.8V30.6C19.8001 31.0774 19.6104 31.5352 19.2729 31.8728C18.9353 32.2104 18.4775 32.4 18.0001 32.4C17.5227 32.4 17.0648 32.2104 16.7273 31.8728C16.3897 31.5352 16.2001 31.0774 16.2001 30.6V28.8C16.2001 28.3226 16.3897 27.8648 16.7273 27.5272C17.0648 27.1896 17.5227 27 18.0001 27ZM9.0901 11.6352C9.25722 11.8024 9.45564 11.9351 9.67404 12.0257C9.89244 12.1162 10.1265 12.1629 10.3629 12.163C10.5994 12.163 10.8335 12.1166 11.052 12.0262C11.2704 11.9358 11.4689 11.8032 11.6362 11.6361C11.8034 11.469 11.9361 11.2706 12.0267 11.0522C12.1172 10.8338 12.1639 10.5997 12.1639 10.3632C12.164 10.1268 12.1175 9.89266 12.0271 9.6742C11.9367 9.45573 11.8042 9.25722 11.6371 9.08998L10.3627 7.81738C10.0232 7.48949 9.56853 7.30806 9.09657 7.31217C8.62462 7.31627 8.17316 7.50557 7.83942 7.8393C7.50569 8.17304 7.31638 8.6245 7.31228 9.09646C7.30818 9.56841 7.48961 10.0231 7.81749 10.3626L9.0901 11.6352ZM11.6353 26.91L10.3627 28.1826C10.0232 28.5105 9.56853 28.6919 9.09657 28.6878C8.62462 28.6837 8.17316 28.4944 7.83942 28.1607C7.50569 27.8269 7.31638 27.3755 7.31228 26.9035C7.30818 26.4316 7.48961 25.9769 7.81749 25.6374L9.0901 24.3648C9.42958 24.0369 9.88426 23.8555 10.3562 23.8596C10.8282 23.8637 11.2796 24.053 11.6133 24.3867C11.9471 24.7205 12.1364 25.1719 12.1405 25.6439C12.1446 26.1158 11.9632 26.5705 11.6353 26.91ZM7.2001 19.8C7.67748 19.8 8.13532 19.6104 8.47289 19.2728C8.81045 18.9352 9.00009 18.4774 9.00009 18C9.00009 17.5226 8.81045 17.0648 8.47289 16.7272C8.13532 16.3896 7.67748 16.2 7.2001 16.2H5.4001C4.92271 16.2 4.46487 16.3896 4.1273 16.7272C3.78974 17.0648 3.6001 17.5226 3.6001 18C3.6001 18.4774 3.78974 18.9352 4.1273 19.2728C4.46487 19.6104 4.92271 19.8 5.4001 19.8H7.2001Z" fill="#F1FAEE"/>
</svg>
